# xmcd
#
# Track frame offsets:
#	150
#	13557
#	26358
#	39729
#	52420
#	65622
#	77463
#	90907
#	102162
#	113944
#	125160
#	137315
#	149909
#	161810
#	172884
#	183696
#	193610
#	205888
#	217909
#	228285
#	240523
#	250977
#	263071
#	275522
#	289461
#	301480
#	313821
#	325485
#
# Disc length: 4509 seconds
#
# Revision: 2
# Processed by: cddbd v1.5.2PL0 Copyright (c) Steve Scherf et al.
# Submitted via: EasyCDDAExtractor 8.2.3.1
#
DISCID=a3119b1c
DTITLE=Various Artist - Swinging Hollywood Hillbilly Cowboys #3: Cowboy and Wes
DTITLE=tern Swinging Hollywood Hillbilly Cowboys_#3  Cowboy and Western
DYEAR=2004
DGENRE=Country
TTITLE0=Bob Wills - Smoke Across The Water
TTITLE1=Bob Wills - Stars And Stripes On Iwo Jima
TTITLE2=Gene Autry - Over And Over Again
TTITLE3=Hank Penny - Merle's Buck Dance
TTITLE4=Tex Williams - Artistry In Western Swing
TTITLE5=Ted Daffan's Texans - Too Far Gone
TTITLE6=Smokey Rogers - I Can't Help The Way I Feel
TTITLE7=Sons Of the Pioneers - Red River Valley
TTITLE8=Rudy Sooter - Easy Payment Blues
TTITLE9=Roy Rogers - I'm Gonna Gallop Gallop To Gallup New Mexico
TTITLE10=Curley Williams - Just A-Pickin' And A-Singin'Singin'
TTITLE11=Dick Reinhart - Hot Rod Baby
TTITLE12=Johnny Bond - The Daughter Of Jole Blon
TTITLE13=Johnny Hicks - Hamburger Hop
TTITLE14=Oakie Jones - Love Fever
TTITLE15=Johnny Tyler - That Wild And Wicked Look In Your Eye
TTITLE16=Leon McAuliffe - Take It Away Leon
TTITLE17=Sheb Wooley - Hoot Owl Boogie
TTITLE18=Smokey Rogers - Catch Me Cheatin'
TTITLE19=Spade Cooley - Yodelling Polka
TTITLE20=Luke Wills Rhythm Busters - A Nickel In The Jukebox
TTITLE21=Bob Wills - Bottle Baby Boogie
TTITLE22=Wes Tuttle - Out On The Open Range
TTITLE23=Tex Ritter - Cattle Call
TTITLE24=Foy Willing - Detour
TTITLE25=Jimmie Widener - I'm All Through Trusting You
TTITLE26=Hank Penny and Jaye P  Morgan - Fan It
TTITLE27=Johnnie Lee Wills - Lazy John
EXTD=YEAR: 2004
EXTT0=
EXTT1=
EXTT2=
EXTT3=
EXTT4=
EXTT5=
EXTT6=
EXTT7=
EXTT8=
EXTT9=
EXTT10=
EXTT11=
EXTT12=
EXTT13=
EXTT14=
EXTT15=
EXTT16=
EXTT17=
EXTT18=
EXTT19=
EXTT20=
EXTT21=
EXTT22=
EXTT23=
EXTT24=
EXTT25=
EXTT26=
EXTT27=
PLAYORDER=
